<svg width="32" height="32" viewBox="0 0 32 32" fill="none" xmlns="http://www.w3.org/2000/svg">
<g clip-path="url(#clip0_68_3499)">
<path d="M16 2.66663C8.64002 2.66663 2.66669 8.63996 2.66669 16C2.66669 23.36 8.64002 29.3333 16 29.3333C23.36 29.3333 29.3334 23.36 29.3334 16C29.3334 8.63996 23.36 2.66663 16 2.66663ZM9.42669 24.3733C10 23.1733 13.4934 22 16 22C18.5067 22 22.0134 23.1733 22.5734 24.3733C20.76 25.8133 18.48 26.6666 16 26.6666C13.52 26.6666 11.24 25.8133 9.42669 24.3733ZM24.48 22.44C22.5734 20.12 17.9467 19.3333 16 19.3333C14.0534 19.3333 9.42669 20.12 7.52002 22.44C6.16002 20.6533 5.33335 18.4266 5.33335 16C5.33335 10.12 10.12 5.33329 16 5.33329C21.88 5.33329 26.6667 10.12 26.6667 16C26.6667 18.4266 25.84 20.6533 24.48 22.44V22.44ZM16 7.99996C13.4134 7.99996 11.3334 10.08 11.3334 12.6666C11.3334 15.2533 13.4134 17.3333 16 17.3333C18.5867 17.3333 20.6667 15.2533 20.6667 12.6666C20.6667 10.08 18.5867 7.99996 16 7.99996ZM16 14.6666C14.8934 14.6666 14 13.7733 14 12.6666C14 11.56 14.8934 10.6666 16 10.6666C17.1067 10.6666 18 11.56 18 12.6666C18 13.7733 17.1067 14.6666 16 14.6666Z" fill="#494961"/>
</g>
<defs>
<clipPath id="clip0_68_3499">
<rect width="32" height="32" fill="white"/>
</clipPath>
</defs>
</svg>
