<svg width="17" height="16" viewBox="0 0 17 16" fill="none" xmlns="http://www.w3.org/2000/svg">
<path d="M7.83331 11.3334H9.16665V7.33337H7.83331V11.3334ZM8.49998 1.33337C4.81998 1.33337 1.83331 4.32004 1.83331 8.00004C1.83331 11.68 4.81998 14.6667 8.49998 14.6667C12.18 14.6667 15.1666 11.68 15.1666 8.00004C15.1666 4.32004 12.18 1.33337 8.49998 1.33337ZM8.49998 13.3334C5.55998 13.3334 3.16665 10.94 3.16665 8.00004C3.16665 5.06004 5.55998 2.66671 8.49998 2.66671C11.44 2.66671 13.8333 5.06004 13.8333 8.00004C13.8333 10.94 11.44 13.3334 8.49998 13.3334ZM7.83331 6.00004H9.16665V4.66671H7.83331V6.00004Z" fill="white"/>
<path d="M7.83331 4.66663H9.16665V5.99996H7.83331V4.66663ZM7.83331 7.33329H9.16665V11.3333H7.83331V7.33329Z" fill="white"/>
<path d="M8.49998 1.33337C4.81998 1.33337 1.83331 4.32004 1.83331 8.00004C1.83331 11.68 4.81998 14.6667 8.49998 14.6667C12.18 14.6667 15.1666 11.68 15.1666 8.00004C15.1666 4.32004 12.18 1.33337 8.49998 1.33337ZM8.49998 13.3334C5.55998 13.3334 3.16665 10.94 3.16665 8.00004C3.16665 5.06004 5.55998 2.66671 8.49998 2.66671C11.44 2.66671 13.8333 5.06004 13.8333 8.00004C13.8333 10.94 11.44 13.3334 8.49998 13.3334Z" fill="white"/>
</svg>
