<svg width="19" height="21" viewBox="0 0 19 21" fill="none" xmlns="http://www.w3.org/2000/svg">
<g clip-path="url(#clip0_68_3356)">
<path d="M9.06375 6.23882C6.52084 6.23882 4.46972 8.2579 4.46972 10.7611C4.46972 13.2643 6.52084 15.2833 9.06375 15.2833C11.6067 15.2833 13.6578 13.2643 13.6578 10.7611C13.6578 8.2579 11.6067 6.23882 9.06375 6.23882ZM9.06375 13.7011C7.42045 13.7011 6.07703 12.3826 6.07703 10.7611C6.07703 9.13952 7.41646 7.82102 9.06375 7.82102C10.711 7.82102 12.0505 9.13952 12.0505 10.7611C12.0505 12.3826 10.707 13.7011 9.06375 13.7011V13.7011ZM14.9172 6.05384C14.9172 6.64028 14.4375 7.10864 13.8457 7.10864C13.25 7.10864 12.7742 6.63634 12.7742 6.05384C12.7742 5.47134 13.254 4.99904 13.8457 4.99904C14.4375 4.99904 14.9172 5.47134 14.9172 6.05384ZM17.9599 7.12438C17.892 5.71142 17.5641 4.45983 16.5126 3.42865C15.465 2.39747 14.1936 2.07473 12.7582 2.00388C11.2788 1.92123 6.8447 1.92123 5.36533 2.00388C3.93395 2.07079 2.66249 2.39353 1.61094 3.42471C0.55939 4.4559 0.235528 5.70749 0.163559 7.12045C0.0795949 8.5767 0.0795949 12.9415 0.163559 14.3978C0.23153 15.8107 0.55939 17.0623 1.61094 18.0935C2.66249 19.1247 3.92995 19.4474 5.36533 19.5183C6.8447 19.6009 11.2788 19.6009 12.7582 19.5183C14.1936 19.4514 15.465 19.1286 16.5126 18.0935C17.5601 17.0623 17.888 15.8107 17.9599 14.3978C18.0439 12.9415 18.0439 8.58063 17.9599 7.12438V7.12438ZM16.0488 15.9603C15.7369 16.7317 15.1332 17.326 14.3455 17.6369C13.166 18.0974 10.3672 17.9912 9.06375 17.9912C7.76031 17.9912 4.95751 18.0935 3.78201 17.6369C2.99835 17.33 2.3946 16.7356 2.07874 15.9603C1.61094 14.7992 1.71889 12.0442 1.71889 10.7611C1.71889 9.478 1.61494 6.71899 2.07874 5.56186C2.39061 4.79044 2.99435 4.19613 3.78201 3.8852C4.96151 3.42471 7.76031 3.53098 9.06375 3.53098C10.3672 3.53098 13.17 3.42865 14.3455 3.8852C15.1292 4.1922 15.7329 4.78651 16.0488 5.56186C16.5166 6.72293 16.4086 9.478 16.4086 10.7611C16.4086 12.0442 16.5166 14.8032 16.0488 15.9603Z" fill="#172B4D"/>
</g>
<defs>
<clipPath id="clip0_68_3356">
<rect width="17.9123" height="20.1514" fill="white" transform="translate(0.103577 0.689697)"/>
</clipPath>
</defs>
</svg>
