<svg width="44" height="45" viewBox="0 0 44 45" fill="none" xmlns="http://www.w3.org/2000/svg">
<rect opacity="0.1" x="0.894417" y="0.934761" width="42.5418" height="42.5418" rx="21.2709" fill="#091E42" stroke="#0A142F" stroke-width="1.11952"/>
<path fill-rule="evenodd" clip-rule="evenodd" d="M18.247 29.4826H14.8884V19.4069H18.247V29.4826V29.4826Z" fill="#172B4D"/>
<path fill-rule="evenodd" clip-rule="evenodd" d="M16.5577 17.1679H16.5386C15.5364 17.1679 14.8884 16.4212 14.8884 15.488C14.8884 14.5351 15.5561 13.8093 16.5774 13.8093C17.5987 13.8093 18.2276 14.5351 18.247 15.488C18.247 16.4212 17.5987 17.1679 16.5577 17.1679V17.1679Z" fill="#172B4D"/>
<path fill-rule="evenodd" clip-rule="evenodd" d="M30.5616 29.4823H27.2614V24.2156C27.2614 22.8927 26.7838 21.99 25.589 21.99C24.6772 21.99 24.1341 22.5986 23.8956 23.1863C23.8083 23.397 23.7869 23.6905 23.7869 23.9847V29.4826H20.4861C20.4861 29.4826 20.5296 20.562 20.4861 19.6383H23.7869V21.0326C24.2249 20.3623 25.0095 19.4069 26.7618 19.4069C28.9336 19.4069 30.5618 20.8142 30.5618 23.8379L30.5616 29.4823V29.4823Z" fill="#172B4D"/>
</svg>
