<svg width="32" height="32" viewBox="0 0 32 32" fill="none" xmlns="http://www.w3.org/2000/svg">
<g clip-path="url(#clip0_68_3503)">
<path d="M16 7.86671C17.5467 7.86671 18.8 9.12004 18.8 10.6667C18.8 12.2134 17.5467 13.4667 16 13.4667C14.4534 13.4667 13.2 12.2134 13.2 10.6667C13.2 9.12004 14.4534 7.86671 16 7.86671ZM16 19.8667C19.96 19.8667 24.1334 21.8134 24.1334 22.6667V24.1334H7.86671V22.6667C7.86671 21.8134 12.04 19.8667 16 19.8667ZM16 5.33337C13.0534 5.33337 10.6667 7.72004 10.6667 10.6667C10.6667 13.6134 13.0534 16 16 16C18.9467 16 21.3334 13.6134 21.3334 10.6667C21.3334 7.72004 18.9467 5.33337 16 5.33337ZM16 17.3334C12.44 17.3334 5.33337 19.12 5.33337 22.6667V25.3334C5.33337 26.0667 5.93337 26.6667 6.66671 26.6667H25.3334C26.0667 26.6667 26.6667 26.0667 26.6667 25.3334V22.6667C26.6667 19.12 19.56 17.3334 16 17.3334Z" fill="#323232"/>
</g>
<defs>
<clipPath id="clip0_68_3503">
<rect width="32" height="32" fill="white"/>
</clipPath>
</defs>
</svg>
