<svg width="20" height="21" viewBox="0 0 20 21" fill="none" xmlns="http://www.w3.org/2000/svg">
<g clip-path="url(#clip0_68_3390)">
<path d="M12.9583 11.2083C13.5833 11.2083 14.1333 10.8666 14.4167 10.35L17.4 4.94163C17.7083 4.39163 17.3083 3.70829 16.675 3.70829H4.34168L3.55834 2.04163H0.833344V3.70829H2.50001L5.50001 10.0333L4.37501 12.0666C3.76668 13.1833 4.56668 14.5416 5.83334 14.5416H15.8333V12.875H5.83334L6.75001 11.2083H12.9583ZM5.13334 5.37496H15.2583L12.9583 9.54163H7.10834L5.13334 5.37496ZM5.83334 15.375C4.91668 15.375 4.17501 16.125 4.17501 17.0416C4.17501 17.9583 4.91668 18.7083 5.83334 18.7083C6.75001 18.7083 7.50001 17.9583 7.50001 17.0416C7.50001 16.125 6.75001 15.375 5.83334 15.375ZM14.1667 15.375C13.25 15.375 12.5083 16.125 12.5083 17.0416C12.5083 17.9583 13.25 18.7083 14.1667 18.7083C15.0833 18.7083 15.8333 17.9583 15.8333 17.0416C15.8333 16.125 15.0833 15.375 14.1667 15.375Z" fill="white"/>
</g>
<defs>
<clipPath id="clip0_68_3390">
<rect width="20" height="20" fill="white" transform="translate(0 0.375)"/>
</clipPath>
</defs>
</svg>
