<svg width="44" height="45" viewBox="0 0 44 45" fill="none" xmlns="http://www.w3.org/2000/svg">
<rect opacity="0.1" x="0.898414" y="0.934761" width="42.5418" height="42.5418" rx="21.2709" fill="#091E42" stroke="#0A142F" stroke-width="1.11952"/>
<path d="M26.6474 29.1097H17.3181C14.5193 29.1097 12.6534 27.3371 12.6534 24.6782V19.3605C12.6534 16.7017 14.5193 14.9291 17.3181 14.9291H26.6474C29.4462 14.9291 31.3121 16.7017 31.3121 19.3605V24.6782C31.3121 27.3371 29.4462 29.1097 26.6474 29.1097Z" stroke="#091E42" stroke-width="1.11952" stroke-miterlimit="10" stroke-linecap="round" stroke-linejoin="round"/>
<path d="M22.1693 19.9899L24.5017 21.3193C25.3413 21.8511 25.3413 22.6488 24.5017 23.1806L22.1693 24.51C21.2364 25.0418 20.4901 24.5986 20.4901 23.6237V20.9648C20.4901 19.8127 21.2364 19.4581 22.1693 19.9899Z" stroke="#091E42" stroke-width="1.11952" stroke-miterlimit="10" stroke-linecap="round" stroke-linejoin="round"/>
</svg>
