<svg width="16" height="13" viewBox="0 0 16 13" fill="none" xmlns="http://www.w3.org/2000/svg">
<path fill-rule="evenodd" clip-rule="evenodd" d="M7.62443 3.32433L7.65598 3.85698L7.13018 3.79176C5.21629 3.54174 3.54426 2.69385 2.12461 1.26984L1.43056 0.563263L1.25179 1.08504C0.873217 2.24817 1.11508 3.47652 1.90378 4.30266C2.32441 4.75922 2.22977 4.82444 1.50417 4.55268C1.25179 4.46572 1.03096 4.4005 1.00992 4.43311C0.936312 4.5092 1.18869 5.4984 1.3885 5.88974C1.66191 6.43325 2.21925 6.9659 2.82918 7.28114L3.34446 7.53116L2.73453 7.54203C2.14564 7.54203 2.12461 7.5529 2.18771 7.78118C2.39802 8.48775 3.22878 9.2378 4.15418 9.56391L4.80617 9.79219L4.23831 10.14C3.39704 10.6401 2.40854 10.9227 1.42004 10.9444C0.946828 10.9553 0.557739 10.9988 0.557739 11.0314C0.557739 11.1401 1.84068 11.7489 2.58731 11.988C4.8272 12.6946 7.48772 12.3902 9.48575 11.1836C10.9054 10.3248 12.325 8.61819 12.9875 6.9659C13.3451 6.0854 13.7026 4.47659 13.7026 3.7048C13.7026 3.20476 13.7342 3.13954 14.3231 2.54167C14.6701 2.19382 14.9961 1.81335 15.0592 1.70465C15.1643 1.49811 15.1538 1.49811 14.6175 1.68291C13.7237 2.00902 13.5975 1.96554 14.0391 1.47637C14.3651 1.12852 14.7542 0.498041 14.7542 0.313245C14.7542 0.280634 14.5965 0.334986 14.4177 0.432819C14.2284 0.541522 13.8078 0.704577 13.4923 0.80241L12.9245 0.987207L12.4092 0.628485C12.1252 0.432819 11.7256 0.215412 11.5153 0.15019C10.979 -0.00199476 10.1588 0.019746 9.67503 0.193672C8.36055 0.682837 7.52979 1.9438 7.62443 3.32433Z" fill="#172B4D"/>
</svg>
